<svg width="1091" height="1091" viewBox="0 0 1091 1091" fill="none" xmlns="http://www.w3.org/2000/svg">
<rect width="1091" height="1091" rx="244.039" fill="url(#paint0_radial_2_62)"/>
<path d="M450.982 337.347H789.54C787.41 430.351 708.783 459.518 669.736 462.476H534.401C526.562 461.589 510.263 464.695 507.778 484.218C505.293 503.742 522.717 510.693 531.739 511.729H744.724C733.365 621.416 659.826 649.134 624.476 649.282C612.348 648.986 581.613 648.572 555.7 649.282C529.787 649.992 520.35 673.243 518.871 684.779V742.463C518.871 758.479 511.151 773.594 494.663 790.082C486.418 798.327 460.311 817.451 424.803 817.451H338.721V753.556C338.721 733.092 340.496 704.835 374.219 673.243C407.941 641.65 449.799 634.047 466.512 634.195H607.615C670.18 634.195 684.379 611.566 705.677 591.155C722.716 574.826 730.525 539.092 732.3 523.266C665.742 523.118 516.298 522.911 450.982 523.266C385.667 523.62 348.927 572.814 338.721 597.367C337.686 587.901 336.237 546.516 338.721 456.708C341.206 366.899 414.597 339.714 450.982 337.347Z" fill="url(#paint1_linear_2_62)"/>
<circle cx="265.57" cy="265.569" r="28.7105" fill="#F8BE3C"/>
<defs>
<radialGradient id="paint0_radial_2_62" cx="0" cy="0" r="1" gradientUnits="userSpaceOnUse" gradientTransform="translate(540.117 522.173) rotate(123.74) scale(571.834)">
<stop stop-color="#121212"/>
<stop offset="1" stop-color="#333333"/>
</radialGradient>
<linearGradient id="paint1_linear_2_62" x1="563.445" y1="337.347" x2="563.445" y2="817.451" gradientUnits="userSpaceOnUse">
<stop stop-color="#F8B83C"/>
<stop offset="1" stop-color="#F8E63A"/>
</linearGradient>
</defs>
</svg>
