<svg width="554" height="582" viewBox="0 0 554 582" fill="none" xmlns="http://www.w3.org/2000/svg">
<path d="M214.982 101.347H553.54C551.41 194.351 472.783 223.518 433.736 226.476H298.401C290.562 225.589 274.263 228.695 271.778 248.218C269.293 267.742 286.717 274.693 295.739 275.729H508.724C497.365 385.416 423.826 413.134 388.476 413.282C376.348 412.986 345.613 412.572 319.7 413.282C293.786 413.992 284.35 437.243 282.871 448.779V506.463C282.871 522.479 275.151 537.594 258.662 554.082C250.418 562.327 224.311 581.451 188.803 581.451H102.721V517.556C102.721 497.092 104.496 468.835 138.219 437.243C171.941 405.65 213.799 398.047 230.512 398.195H371.615C434.179 398.195 448.378 375.566 469.677 355.155C486.716 338.826 494.525 303.092 496.3 287.266C429.742 287.118 280.297 286.911 214.982 287.266C149.667 287.62 112.927 336.814 102.721 361.367C101.686 351.901 100.236 310.516 102.721 220.708C105.206 130.899 178.597 103.714 214.982 101.347Z" fill="url(#paint0_linear_2_121)"/>
<circle cx="29.5689" cy="29.5689" r="28.7105" fill="#F8BE3C"/>
<defs>
<linearGradient id="paint0_linear_2_121" x1="327.444" y1="101.347" x2="327.444" y2="581.451" gradientUnits="userSpaceOnUse">
<stop stop-color="#F8B83C"/>
<stop offset="1" stop-color="#F8E63A"/>
</linearGradient>
</defs>
</svg>
