<svg width="5706" height="1013" viewBox="0 0 5706 1013" fill="none" xmlns="http://www.w3.org/2000/svg">
<path d="M129.774 998V466.989H0.390973V314.694H187.727L129.774 367.256V268.871C129.774 179.92 152.686 112.982 198.509 68.0571C245.231 23.1323 314.864 0.669955 407.409 0.669955C428.075 0.669955 450.088 2.01768 473.449 4.71313C497.708 7.40864 518.823 12.7996 536.793 20.8861V177.224C524.214 172.732 509.838 169.587 493.665 167.79C477.492 165.095 461.768 163.747 446.494 163.747C425.829 163.747 406.511 167.341 388.541 174.529C371.47 181.717 357.543 193.846 346.761 210.918C336.878 227.091 331.936 249.104 331.936 276.957V348.388L303.633 314.694H504.447V466.989H333.284V998H129.774ZM597.094 998V495.292C597.094 465.641 596.195 435.542 594.398 404.993C593.5 374.444 591.254 344.344 587.66 314.694H783.082L805.994 514.16H774.996C783.981 465.641 798.357 425.658 818.124 394.211C838.789 362.764 863.947 339.403 893.597 324.128C924.146 308.854 958.738 301.217 997.374 301.217C1014.44 301.217 1027.92 302.115 1037.81 303.912C1047.69 304.811 1057.57 307.057 1067.46 310.651L1066.11 489.901C1047.24 481.814 1031.07 476.873 1017.59 475.076C1005.01 472.38 988.838 471.032 969.071 471.032C931.334 471.032 899.887 478.22 874.729 492.596C850.47 506.972 832.05 528.087 819.471 555.94C807.791 583.794 801.951 617.487 801.951 657.021V998H597.094ZM1152.54 998V314.694H1356.05V998H1152.54ZM1144.46 202.831V12.7996H1362.79V202.831H1144.46ZM1866.06 1012.83C1747.46 1012.83 1654.91 980.929 1588.42 917.135C1521.93 853.342 1488.69 766.637 1488.69 657.021C1488.69 586.04 1502.62 524.044 1530.47 471.032C1559.22 418.021 1598.75 376.69 1649.07 347.04C1700.28 316.491 1760.03 301.217 1828.32 301.217C1895.71 301.217 1951.86 315.593 1996.79 344.344C2042.61 373.096 2076.75 413.529 2099.22 465.641C2122.58 516.856 2134.26 576.606 2134.26 644.891V692.062H1655.81V590.982H1986.01L1963.09 609.85C1963.09 553.245 1951.41 510.566 1928.05 481.814C1905.59 452.164 1872.8 437.339 1829.67 437.339C1782.05 437.339 1745.21 454.859 1719.15 489.901C1694 524.942 1681.42 575.258 1681.42 640.848V662.412C1681.42 728.901 1697.59 778.318 1729.94 810.664C1763.18 843.01 1810.8 859.182 1872.8 859.182C1909.63 859.182 1944.23 854.69 1976.57 845.705C2009.82 835.822 2041.26 820.547 2070.91 799.882L2127.52 934.656C2093.38 959.814 2053.84 979.132 2008.92 992.609C1964.89 1006.09 1917.27 1012.83 1866.06 1012.83ZM2263.38 998V492.596C2263.38 463.844 2262.48 434.643 2260.68 404.993C2258.89 374.444 2256.19 344.344 2252.6 314.694H2448.02L2462.84 441.382H2446.67C2469.13 396.457 2501.03 361.865 2542.36 337.606C2583.69 313.346 2631.76 301.217 2686.57 301.217C2766.54 301.217 2826.29 324.578 2865.82 371.299C2906.25 417.123 2926.47 488.553 2926.47 585.591V998H2722.96V595.025C2722.96 545.607 2713.97 510.566 2696 489.901C2678.03 469.235 2651.08 458.903 2615.14 458.903C2570.21 458.903 2534.27 473.279 2507.32 502.03C2480.37 529.884 2466.89 567.621 2466.89 615.241V998H2263.38ZM3358.13 1012.83C3298.82 1012.83 3246.26 998.449 3200.44 969.697C3155.51 940.946 3120.02 900.064 3093.97 847.053C3068.81 794.042 3056.23 730.248 3056.23 655.673C3056.23 581.997 3068.81 518.653 3093.97 465.641C3119.13 412.63 3154.62 372.198 3200.44 344.344C3246.26 315.593 3298.82 301.217 3358.13 301.217C3412.03 301.217 3460.1 314.245 3502.33 340.301C3545.46 365.459 3574.21 399.602 3588.59 442.73H3571.07V6.06086H3774.58V998H3573.76V864.573H3591.28C3576.91 909.498 3548.16 945.438 3505.03 972.393C3461.9 999.348 3412.93 1012.83 3358.13 1012.83ZM3418.77 859.182C3465.5 859.182 3503.23 842.56 3531.98 809.316C3560.74 776.072 3575.11 724.857 3575.11 655.673C3575.11 586.489 3560.74 535.724 3531.98 503.378C3503.23 471.032 3465.5 454.859 3418.77 454.859C3372.05 454.859 3333.87 471.032 3304.22 503.378C3275.46 535.724 3261.09 586.489 3261.09 655.673C3261.09 724.857 3275.46 776.072 3304.22 809.316C3333.87 842.56 3372.05 859.182 3418.77 859.182ZM4285.15 1012.83C4166.55 1012.83 4074 980.929 4007.52 917.135C3941.03 853.342 3907.78 766.637 3907.78 657.021C3907.78 586.04 3921.71 524.044 3949.56 471.032C3978.31 418.021 4017.85 376.69 4068.16 347.04C4119.38 316.491 4179.13 301.217 4247.41 301.217C4314.8 301.217 4370.96 315.593 4415.88 344.344C4461.71 373.096 4495.85 413.529 4518.31 465.641C4541.67 516.856 4553.35 576.606 4553.35 644.891V692.062H4074.9V590.982H4405.1L4382.19 609.85C4382.19 553.245 4370.51 510.566 4347.15 481.814C4324.68 452.164 4291.89 437.339 4248.76 437.339C4201.14 437.339 4164.3 454.859 4138.25 489.901C4113.09 524.942 4100.51 575.258 4100.51 640.848V662.412C4100.51 728.901 4116.68 778.318 4149.03 810.664C4182.27 843.01 4229.89 859.182 4291.89 859.182C4328.73 859.182 4363.32 854.69 4395.67 845.705C4428.91 835.822 4460.36 820.547 4490.01 799.882L4546.61 934.656C4512.47 959.814 4472.94 979.132 4428.01 992.609C4383.99 1006.09 4336.37 1012.83 4285.15 1012.83ZM4681.12 998V495.292C4681.12 465.641 4680.23 435.542 4678.43 404.993C4677.53 374.444 4675.28 344.344 4671.69 314.694H4867.11L4890.02 514.16H4859.03C4868.01 465.641 4882.39 425.658 4902.15 394.211C4922.82 362.764 4947.98 339.403 4977.63 324.128C5008.18 308.854 5042.77 301.217 5081.4 301.217C5098.48 301.217 5111.95 302.115 5121.84 303.912C5131.72 304.811 5141.6 307.057 5151.49 310.651L5150.14 489.901C5131.27 481.814 5115.1 476.873 5101.62 475.076C5089.04 472.38 5072.87 471.032 5053.1 471.032C5015.36 471.032 4983.92 478.22 4958.76 492.596C4934.5 506.972 4916.08 528.087 4903.5 555.94C4891.82 583.794 4885.98 617.487 4885.98 657.021V998H4681.12ZM5235.23 998V495.292C5235.23 465.641 5234.33 435.542 5232.53 404.993C5231.63 374.444 5229.39 344.344 5225.79 314.694H5421.21L5444.13 514.16H5413.13C5422.11 465.641 5436.49 425.658 5456.26 394.211C5476.92 362.764 5502.08 339.403 5531.73 324.128C5562.28 308.854 5596.87 301.217 5635.51 301.217C5652.58 301.217 5666.05 302.115 5675.94 303.912C5685.82 304.811 5695.7 307.057 5705.59 310.651L5704.24 489.901C5685.37 481.814 5669.2 476.873 5655.72 475.076C5643.14 472.38 5626.97 471.032 5607.2 471.032C5569.47 471.032 5538.02 478.22 5512.86 492.596C5488.6 506.972 5470.18 528.087 5457.6 555.94C5445.92 583.794 5440.08 617.487 5440.08 657.021V998H5235.23Z" fill="url(#paint0_linear_2_103)"/>
<defs>
<linearGradient id="paint0_linear_2_103" x1="5486.38" y1="489.5" x2="167.375" y2="489.5" gradientUnits="userSpaceOnUse">
<stop stop-color="#F4EC31"/>
<stop offset="1" stop-color="#F4BC5B"/>
</linearGradient>
</defs>
</svg>
