<?xml version="1.0" standalone="no"?>
<!DOCTYPE svg PUBLIC "-//W3C//DTD SVG 20010904//EN"
 "http://www.w3.org/TR/2001/REC-SVG-20010904/DTD/svg10.dtd">
<svg version="1.0" xmlns="http://www.w3.org/2000/svg"
 width="512.000000pt" height="512.000000pt" viewBox="0 0 512.000000 512.000000"
 preserveAspectRatio="xMidYMid meet">

<g transform="translate(0.000000,512.000000) scale(0.100000,-0.100000)"
fill="#000000" stroke="none">
<path d="M700 4765 l0 -355 -350 0 -350 0 0 -200 0 -200 350 0 350 0 0 -1738
c0 -1699 0 -1741 20 -1816 28 -112 73 -189 160 -277 87 -87 182 -140 295 -164
105 -22 3365 -22 3470 0 114 24 209 77 295 164 86 88 132 166 160 277 19 75
20 115 20 1303 l0 1226 -713 713 -712 712 -1298 0 -1297 0 0 355 0 355 -200 0
-200 0 0 -355z m2710 -1145 c0 -245 4 -409 11 -442 6 -29 29 -91 50 -137 31
-67 54 -99 116 -161 78 -77 133 -112 243 -153 52 -20 79 -21 473 -25 l417 -3
-2 -1084 -3 -1083 -30 -43 c-16 -23 -48 -52 -70 -63 l-40 -21 -1665 0 -1665 0
-40 21 c-22 11 -53 40 -70 63 l-30 43 -3 1739 -2 1739 1155 0 1155 0 0 -390z
m1030 -518 c2 -2 -109 -2 -247 0 l-251 3 -44 30 c-25 18 -52 49 -65 75 -22 42
-23 55 -23 279 l0 235 312 -309 c172 -171 315 -311 318 -313z"/>
</g>
</svg>
