<?xml version="1.0" standalone="no"?>
<!DOCTYPE svg PUBLIC "-//W3C//DTD SVG 20010904//EN"
 "http://www.w3.org/TR/2001/REC-SVG-20010904/DTD/svg10.dtd">
<svg version="1.0" xmlns="http://www.w3.org/2000/svg"
 width="512.000000pt" height="512.000000pt" viewBox="0 0 512.000000 512.000000"
 preserveAspectRatio="xMidYMid meet">

<g transform="translate(0.000000,512.000000) scale(0.100000,-0.100000)"
fill="#000000" stroke="none">
<path d="M1525 4673 c-263 -56 -503 -255 -604 -501 -70 -169 -65 -38 -68
-1762 -3 -1003 0 -1578 6 -1620 19 -117 94 -233 193 -296 125 -80 317 -84 438
-11 19 12 223 155 452 318 230 164 439 305 465 316 67 25 239 25 306 -1 26
-10 236 -152 465 -315 229 -163 433 -306 452 -318 90 -55 234 -69 341 -33 79
27 123 56 182 119 58 62 95 138 108 223 6 40 8 645 6 1618 -3 1724 2 1593 -68
1762 -103 250 -342 447 -611 502 -112 23 -1955 23 -2063 -1z"/>
</g>
</svg>
