<?xml version="1.0" standalone="no"?>
<!DOCTYPE svg PUBLIC "-//W3C//DTD SVG 20010904//EN"
 "http://www.w3.org/TR/2001/REC-SVG-20010904/DTD/svg10.dtd">
<svg version="1.0" xmlns="http://www.w3.org/2000/svg"
 width="512.000000pt" height="512.000000pt" viewBox="0 0 512.000000 512.000000"
 preserveAspectRatio="xMidYMid meet">

<g transform="translate(0.000000,512.000000) scale(0.100000,-0.100000)"
fill="#000000" stroke="none">
<path d="M1795 4419 c-225 -26 -453 -143 -615 -315 -111 -119 -196 -268 -239
-424 -39 -137 -42 -273 -39 -1480 3 -1067 5 -1160 21 -1214 29 -99 76 -176
157 -257 119 -120 251 -174 425 -173 105 1 213 33 298 88 29 18 182 142 341
275 298 248 333 271 416 271 84 0 118 -22 434 -285 186 -155 330 -267 367
-285 87 -44 170 -63 275 -62 213 1 408 120 508 311 70 134 66 54 66 1422 0
1166 -1 1239 -19 1324 -41 198 -131 365 -271 506 -172 173 -366 269 -605 298
-106 13 -1410 13 -1520 0z m1574 -332 c244 -66 439 -261 501 -503 19 -75 20
-116 20 -1294 l0 -1218 -28 -53 c-54 -103 -172 -162 -281 -140 -30 6 -71 22
-91 35 -19 13 -152 124 -295 246 -303 260 -304 260 -372 295 -175 87 -366 84
-537 -9 -52 -28 -159 -113 -343 -270 -147 -126 -285 -242 -307 -258 -23 -15
-66 -33 -97 -39 -109 -22 -227 37 -281 140 l-28 53 0 1218 c0 1170 1 1220 19
1292 68 265 280 463 548 512 64 12 208 14 793 12 637 -2 722 -4 779 -19z"/>
</g>
</svg>
