<?xml version="1.0" standalone="no"?>
<!DOCTYPE svg PUBLIC "-//W3C//DTD SVG 20010904//EN"
 "http://www.w3.org/TR/2001/REC-SVG-20010904/DTD/svg10.dtd">
<svg version="1.0" xmlns="http://www.w3.org/2000/svg"
 width="512.000000pt" height="512.000000pt" viewBox="0 0 512.000000 512.000000"
 preserveAspectRatio="xMidYMid meet">

<g transform="translate(0.000000,512.000000) scale(0.100000,-0.100000)"
fill="#000000" stroke="none">
<path d="M1253 4690 c-212 -56 -371 -221 -418 -435 -14 -62 -15 -272 -13
-1820 l3 -1750 29 -58 c83 -163 281 -238 436 -166 30 15 93 60 140 101 96 85
546 483 843 747 109 97 213 184 230 194 38 21 82 22 119 3 15 -8 277 -236 583
-508 629 -559 636 -563 764 -562 134 1 243 70 303 192 l33 67 3 1730 c2 1192
-1 1750 -8 1795 -38 235 -220 427 -447 475 -57 12 -265 15 -1298 14 -1170 0
-1233 -1 -1302 -19z"/>
</g>
</svg>
