<?xml version="1.0" standalone="no"?>
<!DOCTYPE svg PUBLIC "-//W3C//DTD SVG 20010904//EN"
 "http://www.w3.org/TR/2001/REC-SVG-20010904/DTD/svg10.dtd">
<svg version="1.0" xmlns="http://www.w3.org/2000/svg"
 width="512.000000pt" height="512.000000pt" viewBox="0 0 512.000000 512.000000"
 preserveAspectRatio="xMidYMid meet">

<g transform="translate(0.000000,512.000000) scale(0.100000,-0.100000)"
fill="#000000" stroke="none">
<path d="M2290 4893 c-475 -37 -981 -204 -1353 -445 -498 -324 -810 -753 -909
-1251 -32 -162 -32 -435 0 -595 106 -524 447 -978 974 -1294 61 -37 115 -69
119 -70 4 -2 18 -220 32 -485 23 -478 24 -483 47 -508 45 -48 69 -39 369 129
152 85 422 236 600 335 l323 181 67 0 c316 1 722 66 1006 163 825 281 1387
851 1527 1549 29 147 32 432 5 573 -84 433 -328 822 -703 1121 -415 331 -914
527 -1499 589 -127 13 -476 18 -605 8z m715 -223 c600 -92 1103 -337 1462
-714 225 -235 371 -509 430 -803 26 -133 24 -396 -5 -530 -97 -448 -399 -848
-855 -1132 -195 -121 -478 -239 -722 -301 -249 -63 -415 -86 -700 -97 l-180
-6 -519 -290 c-285 -159 -526 -292 -535 -294 -15 -4 -19 33 -35 399 -12 256
-23 414 -31 433 -10 25 -39 46 -141 104 -520 295 -840 696 -946 1184 -18 82
-22 135 -22 272 0 254 39 419 154 650 289 580 967 1013 1760 1124 208 30 200
29 485 26 205 -2 290 -8 400 -25z"/>
</g>
</svg>
