<?xml version="1.0" standalone="no"?>
<!DOCTYPE svg PUBLIC "-//W3C//DTD SVG 20010904//EN"
 "http://www.w3.org/TR/2001/REC-SVG-20010904/DTD/svg10.dtd">
<svg version="1.0" xmlns="http://www.w3.org/2000/svg"
 width="512.000000pt" height="512.000000pt" viewBox="0 0 512.000000 512.000000"
 preserveAspectRatio="xMidYMid meet">

<g transform="translate(0.000000,512.000000) scale(0.100000,-0.100000)"
fill="#000000" stroke="none">
<path d="M2295 4979 c-650 -65 -1214 -327 -1647 -766 -732 -739 -855 -1809
-308 -2668 72 -113 70 -99 44 -295 -53 -414 -172 -756 -326 -938 -68 -79 -74
-117 -25 -162 27 -26 48 -25 214 5 409 76 839 213 1149 367 l121 60 119 -42
c142 -50 357 -103 509 -125 232 -34 575 -36 800 -5 752 106 1417 508 1811
1097 85 126 213 388 259 528 218 667 88 1395 -352 1962 -397 512 -1005 861
-1678 962 -201 31 -501 39 -690 20z m500 -169 c329 -31 607 -108 900 -249 247
-119 425 -244 618 -431 192 -186 329 -372 438 -595 370 -761 210 -1646 -410
-2265 -389 -389 -919 -636 -1496 -700 -237 -26 -588 -8 -820 41 -111 23 -315
81 -315 88 1 3 69 51 152 106 83 55 160 112 171 127 28 38 17 92 -26 119 -40
24 -63 19 -127 -29 -104 -78 -431 -280 -565 -347 -158 -80 -289 -133 -495
-199 -121 -39 -383 -108 -498 -131 l-33 -7 39 79 c112 223 190 514 232 869 11
93 20 176 20 185 0 9 -31 64 -70 124 -203 313 -301 596 -332 953 -28 329 39
674 191 987 175 358 470 680 831 905 107 67 334 177 464 225 181 67 441 125
646 144 126 12 360 12 485 1z"/>
<path d="M1287 3020 c-59 -15 -115 -48 -161 -93 -137 -138 -131 -360 14 -490
132 -119 328 -117 456 5 215 203 86 563 -208 583 -34 2 -80 0 -101 -5z m153
-182 c119 -61 127 -209 16 -292 -21 -16 -42 -21 -91 -21 -71 0 -103 17 -143
76 -20 29 -23 44 -20 94 5 74 33 119 92 146 54 25 93 24 146 -3z"/>
<path d="M2473 3015 c-96 -26 -184 -101 -227 -194 -32 -71 -30 -197 6 -273 31
-68 95 -133 164 -168 42 -21 62 -25 144 -25 82 0 102 4 144 25 69 35 133 100
164 168 36 76 38 202 6 273 -44 95 -131 168 -231 194 -69 18 -102 18 -170 0z
m139 -165 c46 -13 105 -77 114 -124 14 -77 -21 -153 -85 -186 -170 -86 -332
120 -204 261 48 53 103 69 175 49z"/>
<path d="M3669 3017 c-202 -57 -308 -278 -224 -466 95 -210 364 -268 535 -114
221 199 96 566 -202 588 -36 3 -82 -1 -109 -8z m157 -176 c59 -27 87 -72 92
-146 3 -50 0 -65 -20 -94 -40 -59 -72 -76 -143 -76 -68 0 -99 15 -138 66 -40
54 -40 143 0 198 24 33 98 71 138 71 16 0 48 -9 71 -19z"/>
</g>
</svg>
