<?xml version="1.0" standalone="no"?>
<!DOCTYPE svg PUBLIC "-//W3C//DTD SVG 20010904//EN"
 "http://www.w3.org/TR/2001/REC-SVG-20010904/DTD/svg10.dtd">
<svg version="1.0" xmlns="http://www.w3.org/2000/svg"
 width="512.000000pt" height="512.000000pt" viewBox="0 0 512.000000 512.000000"
 preserveAspectRatio="xMidYMid meet">

<g transform="translate(0.000000,512.000000) scale(0.100000,-0.100000)"
fill="#000000" stroke="none">
<path d="M1745 3989 c-516 -67 -957 -434 -1119 -932 -61 -188 -61 -183 -61
-997 l0 -745 23 -45 c35 -72 75 -114 144 -151 l63 -34 1285 0 c1190 0 1291 1
1372 18 554 113 973 531 1085 1085 26 126 26 578 0 704 -111 547 -511 954
-1062 1081 -87 20 -120 21 -875 23 -432 1 -816 -2 -855 -7z m1715 -176 c471
-116 814 -466 916 -933 24 -109 27 -542 5 -655 -96 -486 -457 -855 -941 -961
-80 -18 -153 -19 -1352 -19 -1264 0 -1267 0 -1294 21 -15 11 -37 33 -48 48
-21 27 -21 36 -21 754 0 796 0 792 62 967 146 408 510 718 923 785 41 6 82 13
90 15 8 2 366 2 795 1 754 -2 783 -3 865 -23z"/>
<path d="M1705 2766 c-101 -44 -125 -178 -46 -257 61 -61 151 -65 216 -8 134
118 -6 337 -170 265z"/>
<path d="M2495 2766 c-101 -44 -125 -178 -46 -257 65 -65 157 -65 222 0 124
124 -15 327 -176 257z"/>
<path d="M3285 2766 c-103 -45 -126 -180 -44 -258 67 -64 156 -64 220 1 124
124 -15 327 -176 257z"/>
</g>
</svg>
