<?xml version="1.0" standalone="no"?>
<!DOCTYPE svg PUBLIC "-//W3C//DTD SVG 20010904//EN"
 "http://www.w3.org/TR/2001/REC-SVG-20010904/DTD/svg10.dtd">
<svg version="1.0" xmlns="http://www.w3.org/2000/svg"
 width="512.000000pt" height="512.000000pt" viewBox="0 0 512.000000 512.000000"
 preserveAspectRatio="xMidYMid meet">

<g transform="translate(0.000000,512.000000) scale(0.100000,-0.100000)"
fill="#000000" stroke="none">
<path d="M2380 4794 c-169 -20 -218 -28 -305 -45 -240 -49 -563 -186 -771
-326 -388 -261 -669 -607 -838 -1033 -211 -535 -189 -1174 58 -1696 50 -104
76 -151 158 -286 l35 -57 -100 -358 c-111 -397 -120 -451 -80 -528 44 -84 138
-144 226 -145 36 0 140 33 437 140 215 77 400 140 412 140 11 0 93 -24 182
-54 191 -65 279 -88 441 -116 315 -54 606 -43 915 35 300 75 617 237 855 437
389 326 651 768 750 1263 95 479 36 949 -174 1380 -120 246 -250 423 -452 620
-335 325 -738 526 -1214 606 -115 19 -448 34 -535 23z m370 -324 c711 -74
1326 -524 1589 -1165 310 -753 91 -1623 -540 -2150 -271 -226 -593 -369 -949
-421 -151 -22 -416 -15 -576 15 -134 25 -312 75 -449 127 -93 35 -107 38 -210
38 l-110 0 -315 -115 c-173 -64 -316 -112 -318 -108 -2 4 34 139 79 301 111
396 111 415 -17 618 -266 424 -353 897 -254 1379 69 336 249 669 499 920 410
412 994 621 1571 561z"/>
</g>
</svg>
