<?xml version="1.0" standalone="no"?>
<!DOCTYPE svg PUBLIC "-//W3C//DTD SVG 20010904//EN"
 "http://www.w3.org/TR/2001/REC-SVG-20010904/DTD/svg10.dtd">
<svg version="1.0" xmlns="http://www.w3.org/2000/svg"
 width="512.000000pt" height="512.000000pt" viewBox="0 0 512.000000 512.000000"
 preserveAspectRatio="xMidYMid meet">

<g transform="translate(0.000000,512.000000) scale(0.100000,-0.100000)"
fill="#000000" stroke="none">
<path d="M1855 4746 c-67 -29 -105 -106 -91 -181 9 -47 59 -102 104 -115 25
-8 257 -10 714 -8 665 3 677 3 704 24 53 39 69 71 69 134 0 63 -16 95 -69 134
-27 21 -38 21 -714 23 -556 2 -693 0 -717 -11z"/>
<path d="M735 4266 c-94 -41 -124 -168 -58 -247 40 -47 79 -59 187 -59 l96 0
2 -1532 3 -1533 28 -82 c67 -197 223 -353 421 -421 l81 -27 1030 -3 c906 -2
1039 -1 1108 13 232 47 417 211 495 439 l27 81 3 1532 2 1531 109 4 c92 2 114
6 137 24 53 39 69 71 69 134 0 63 -16 95 -69 134 l-27 21 -1807 2 c-1487 2
-1812 0 -1837 -11z m3103 -1818 l-3 -1513 -26 -55 c-37 -80 -81 -125 -157
-162 l-67 -33 -1025 0 -1025 0 -67 33 c-76 37 -120 82 -157 162 l-26 55 -3
1513 -2 1512 1280 0 1280 0 -2 -1512z"/>
<path d="M1935 3226 c-41 -18 -83 -69 -90 -109 -3 -18 -5 -406 -3 -864 3 -822
3 -832 24 -859 39 -53 71 -69 134 -69 63 0 95 16 134 69 21 27 21 34 21 886 0
852 0 859 -21 886 -11 15 -32 37 -46 47 -33 25 -113 32 -153 13z"/>
<path d="M3055 3226 c-41 -18 -83 -69 -90 -109 -3 -18 -5 -406 -3 -864 3 -822
3 -832 24 -859 39 -53 71 -69 134 -69 63 0 95 16 134 69 21 27 21 34 21 886 0
852 0 859 -21 886 -11 15 -32 37 -46 47 -33 25 -113 32 -153 13z"/>
</g>
</svg>
