<?xml version="1.0" standalone="no"?>
<!DOCTYPE svg PUBLIC "-//W3C//DTD SVG 20010904//EN"
 "http://www.w3.org/TR/2001/REC-SVG-20010904/DTD/svg10.dtd">
<svg version="1.0" xmlns="http://www.w3.org/2000/svg"
 width="512.000000pt" height="512.000000pt" viewBox="0 0 512.000000 512.000000"
 preserveAspectRatio="xMidYMid meet">

<g transform="translate(0.000000,512.000000) scale(0.100000,-0.100000)"
fill="#000000" stroke="none">
<path d="M2341 5109 c-297 -33 -595 -132 -834 -275 -155 -93 -248 -166 -388
-304 -197 -196 -307 -349 -425 -595 -129 -271 -189 -513 -201 -810 -18 -466
116 -905 375 -1230 31 -38 400 -473 819 -966 810 -952 789 -929 873 -929 84 0
63 -22 873 929 419 493 788 928 819 966 377 473 482 1186 267 1819 -40 117
-141 328 -209 436 -321 512 -834 852 -1429 946 -118 18 -427 26 -540 13z m449
-363 c647 -86 1183 -532 1390 -1155 70 -209 84 -298 84 -536 1 -242 -12 -337
-75 -527 -47 -146 -109 -267 -193 -378 -87 -115 -1425 -1685 -1436 -1685 -11
0 -1349 1570 -1434 1683 -118 156 -197 339 -247 572 -20 91 -23 134 -23 325 0
191 3 234 22 325 146 675 617 1175 1265 1341 186 47 446 61 647 35z"/>
<path d="M2441 4049 c-407 -47 -742 -343 -853 -751 -19 -70 -22 -108 -22 -243
0 -135 3 -173 23 -245 100 -374 395 -656 769 -736 102 -22 302 -22 404 0 376
80 667 360 770 738 30 112 32 365 4 473 -109 421 -446 717 -871 765 -101 11
-119 11 -224 -1z m309 -379 c164 -55 301 -169 377 -316 52 -100 73 -183 73
-296 0 -118 -14 -176 -67 -287 -85 -178 -251 -306 -445 -345 -97 -20 -159 -20
-256 0 -194 39 -360 167 -445 345 -53 111 -67 169 -67 287 0 113 21 196 73
296 89 173 266 301 467 340 58 11 226 -3 290 -24z"/>
</g>
</svg>
