<?xml version="1.0" standalone="no"?>
<!DOCTYPE svg PUBLIC "-//W3C//DTD SVG 20010904//EN"
 "http://www.w3.org/TR/2001/REC-SVG-20010904/DTD/svg10.dtd">
<svg version="1.0" xmlns="http://www.w3.org/2000/svg"
 width="512.000000pt" height="512.000000pt" viewBox="0 0 512.000000 512.000000"
 preserveAspectRatio="xMidYMid meet">

<g transform="translate(0.000000,512.000000) scale(0.100000,-0.100000)"
fill="#000000" stroke="none">
<path d="M2380 4954 c-160 -18 -230 -29 -330 -51 -900 -197 -1601 -880 -1820
-1775 -52 -211 -64 -322 -64 -568 0 -304 35 -520 129 -789 297 -850 1019
-1445 1927 -1587 158 -25 518 -25 676 0 1071 168 1870 967 2039 2039 24 157
24 518 -1 675 -80 515 -299 961 -650 1331 -87 91 -266 240 -387 321 -306 204
-620 326 -996 385 -93 15 -448 28 -523 19z m412 -329 c375 -44 721 -181 1017
-403 95 -71 273 -243 356 -342 206 -248 364 -576 430 -894 193 -933 -267
-1874 -1120 -2292 -802 -392 -1763 -231 -2390 402 -807 813 -803 2130 8 2936
449 447 1077 666 1699 593z"/>
<path d="M3477 3864 c-128 -38 -1423 -511 -1465 -536 -72 -42 -178 -148 -220
-220 -19 -32 -141 -357 -284 -755 l-252 -698 0 -85 c-1 -74 3 -93 27 -142 32
-65 90 -121 156 -152 36 -16 64 -21 131 -20 l85 0 698 251 c403 145 722 265
754 285 73 42 179 148 221 220 19 32 141 357 284 755 l252 698 0 85 c1 74 -3
93 -27 142 -53 107 -149 169 -272 174 -38 2 -78 0 -88 -2z m-782 -1015 c63
-30 123 -90 155 -154 20 -41 25 -65 25 -135 -1 -77 -4 -91 -34 -148 -38 -70
-70 -101 -145 -140 -43 -22 -64 -26 -136 -26 -70 -1 -94 4 -135 24 -260 128
-238 495 35 594 63 23 170 16 235 -15z"/>
</g>
</svg>
