<?xml version="1.0" standalone="no"?>
<!DOCTYPE svg PUBLIC "-//W3C//DTD SVG 20010904//EN"
 "http://www.w3.org/TR/2001/REC-SVG-20010904/DTD/svg10.dtd">
<svg version="1.0" xmlns="http://www.w3.org/2000/svg"
 width="512.000000pt" height="512.000000pt" viewBox="0 0 512.000000 512.000000"
 preserveAspectRatio="xMidYMid meet">

<g transform="translate(0.000000,512.000000) scale(0.100000,-0.100000)"
fill="#000000" stroke="none">
<path d="M665 4581 c-50 -23 -109 -84 -130 -133 -22 -53 -19 -153 6 -208 29
-66 3621 -3659 3693 -3695 63 -32 161 -34 221 -6 50 23 109 84 130 133 22 53
19 153 -6 208 -14 31 -80 105 -220 246 l-200 200 102 90 c233 203 453 492 593
778 79 163 139 320 139 366 0 48 -61 207 -144 375 -240 481 -629 877 -1109
1128 -283 148 -569 234 -907 273 -165 20 -490 14 -648 -11 -227 -35 -492 -114
-692 -206 l-87 -40 -240 240 c-173 172 -254 246 -286 260 -59 27 -160 28 -215
2z m2170 -1035 c353 -105 601 -354 712 -712 25 -83 27 -101 27 -274 0 -173 -2
-191 -27 -274 -30 -98 -91 -236 -104 -236 -4 0 -92 84 -195 187 l-187 187 6
95 c9 160 -39 293 -147 401 -108 108 -241 156 -401 147 l-95 -6 -187 187
c-103 103 -187 190 -187 194 0 11 85 52 170 82 135 48 192 56 365 52 138 -3
172 -7 250 -30z"/>
<path d="M542 3368 c-178 -225 -415 -686 -415 -808 0 -89 158 -430 294 -633
112 -170 198 -275 329 -406 607 -609 1462 -868 2319 -702 57 11 106 23 109 26
4 3 -148 160 -337 349 l-344 344 -66 7 c-333 36 -659 276 -802 590 -38 85 -75
214 -84 295 l-7 65 -466 468 c-257 257 -470 467 -474 467 -3 0 -29 -28 -56
-62z"/>
</g>
</svg>
