<?xml version="1.0" standalone="no"?>
<!DOCTYPE svg PUBLIC "-//W3C//DTD SVG 20010904//EN"
 "http://www.w3.org/TR/2001/REC-SVG-20010904/DTD/svg10.dtd">
<svg version="1.0" xmlns="http://www.w3.org/2000/svg"
 width="512.000000pt" height="512.000000pt" viewBox="0 0 512.000000 512.000000"
 preserveAspectRatio="xMidYMid meet">

<g transform="translate(0.000000,512.000000) scale(0.100000,-0.100000)"
fill="#000000" stroke="none">
<path d="M442 5100 c-214 -57 -379 -228 -427 -442 -14 -63 -15 -150 -13 -645
3 -559 3 -572 24 -599 39 -53 71 -69 134 -69 63 0 95 16 134 69 21 27 21 41
26 609 6 652 2 619 80 697 78 78 45 74 697 80 568 5 582 5 609 26 53 39 69 71
69 134 0 63 -16 95 -69 134 -27 21 -39 21 -609 23 -546 2 -586 1 -655 -17z"/>
<path d="M3435 5106 c-118 -51 -124 -224 -11 -289 16 -9 169 -13 601 -17 649
-6 617 -2 695 -80 78 -78 74 -45 80 -697 5 -568 5 -582 26 -609 39 -53 71 -69
134 -69 63 0 95 16 134 69 21 27 21 40 24 599 3 641 2 655 -66 789 -45 90
-151 199 -239 246 -34 18 -96 41 -139 52 -73 19 -112 20 -643 20 -448 -1 -572
-4 -596 -14z"/>
<path d="M1170 3829 c-14 -6 -36 -20 -48 -32 -49 -45 -52 -63 -52 -280 0 -195
1 -205 23 -237 32 -48 69 -72 119 -77 58 -7 118 23 149 74 23 37 24 45 24 243
0 198 -1 206 -24 243 -39 64 -124 93 -191 66z"/>
<path d="M2536 3818 c-22 -13 -49 -39 -60 -58 -20 -34 -21 -52 -26 -630 -6
-675 0 -632 -90 -713 -63 -57 -102 -67 -261 -67 -74 0 -150 -5 -171 -10 -49
-14 -104 -76 -113 -129 -9 -53 25 -126 74 -158 32 -22 44 -23 202 -23 199 0
247 8 358 63 115 56 202 143 258 258 23 46 46 108 52 137 7 35 11 260 11 646
l0 593 -22 33 c-53 77 -139 100 -212 58z"/>
<path d="M3615 3826 c-41 -18 -83 -69 -90 -109 -4 -18 -5 -118 -3 -224 3 -210
5 -218 72 -267 39 -29 133 -29 172 0 68 51 69 53 69 294 0 205 -1 220 -21 246
-11 15 -32 37 -46 47 -33 25 -113 32 -153 13z"/>
<path d="M95 1766 c-37 -17 -70 -52 -84 -89 -7 -19 -11 -217 -11 -591 0 -528
1 -568 20 -640 11 -43 34 -105 52 -139 47 -88 156 -194 246 -239 134 -68 148
-69 789 -66 559 3 572 3 599 24 53 39 69 71 69 134 0 63 -16 95 -69 134 -27
21 -41 21 -609 26 -652 6 -619 2 -697 80 -78 78 -74 45 -80 697 -5 568 -5 582
-26 609 -11 15 -32 37 -46 47 -34 25 -113 32 -153 13z"/>
<path d="M4900 1769 c-29 -12 -67 -46 -83 -74 -9 -14 -13 -187 -17 -600 -6
-649 -2 -617 -80 -695 -78 -78 -45 -74 -697 -80 -568 -5 -582 -5 -609 -26 -53
-39 -69 -71 -69 -134 0 -63 16 -95 69 -134 27 -21 40 -21 599 -24 641 -3 655
-2 789 66 98 48 202 152 250 250 68 134 69 148 66 789 -3 559 -3 572 -24 599
-11 15 -32 37 -46 47 -31 23 -111 32 -148 16z"/>
<path d="M1632 1633 c-49 -24 -75 -68 -80 -132 -4 -53 -1 -60 48 -136 98 -150
243 -274 414 -356 133 -64 239 -90 396 -96 202 -8 370 30 537 122 167 92 320
243 398 394 49 96 -33 221 -144 221 -59 0 -102 -26 -144 -87 -17 -26 -59 -77
-92 -112 -251 -268 -659 -296 -952 -67 -63 49 -89 79 -177 199 -15 20 -40 44
-56 52 -38 20 -106 19 -148 -2z"/>
</g>
</svg>
