<?xml version="1.0" standalone="no"?>
<!DOCTYPE svg PUBLIC "-//W3C//DTD SVG 20010904//EN"
 "http://www.w3.org/TR/2001/REC-SVG-20010904/DTD/svg10.dtd">
<svg version="1.0" xmlns="http://www.w3.org/2000/svg"
 width="512.000000pt" height="512.000000pt" viewBox="0 0 512.000000 512.000000"
 preserveAspectRatio="xMidYMid meet">

<g transform="translate(0.000000,512.000000) scale(0.100000,-0.100000)"
fill="#000000" stroke="none">
<path d="M2683 5104 c-24 -9 -63 -34 -87 -57 -27 -26 -369 -525 -882 -1287
-642 -953 -841 -1257 -851 -1295 -32 -119 29 -249 145 -307 l47 -23 503 -3
c300 -2 502 -7 502 -12 0 -5 -43 -413 -95 -906 -52 -494 -95 -922 -95 -953 0
-150 137 -273 286 -258 66 7 146 49 183 96 99 127 1902 2717 1912 2748 16 49
16 127 0 177 -17 49 -82 121 -136 149 -40 22 -46 22 -652 25 -337 1 -613 6
-613 10 -1 4 43 377 96 830 87 739 96 828 85 875 -15 68 -72 142 -134 175 -60
31 -154 38 -214 16z"/>
</g>
</svg>
