<?xml version="1.0" standalone="no"?>
<!DOCTYPE svg PUBLIC "-//W3C//DTD SVG 20010904//EN"
 "http://www.w3.org/TR/2001/REC-SVG-20010904/DTD/svg10.dtd">
<svg version="1.0" xmlns="http://www.w3.org/2000/svg"
 width="512.000000pt" height="512.000000pt" viewBox="0 0 512.000000 512.000000"
 preserveAspectRatio="xMidYMid meet">

<g transform="translate(0.000000,512.000000) scale(0.100000,-0.100000)"
fill="#000000" stroke="none">
<path d="M2472 4595 c-18 -8 -453 -266 -966 -574 -602 -362 -944 -573 -964
-595 -67 -76 -63 13 -60 -1382 l3 -1260 37 -76 c45 -91 103 -147 196 -191 l67
-32 500 -3 c376 -2 511 0 545 9 59 17 141 97 158 155 9 30 12 189 12 593 l0
552 25 24 24 25 511 0 511 0 24 -25 25 -24 0 -552 c0 -404 3 -563 12 -593 17
-58 99 -138 158 -155 34 -9 169 -11 545 -9 l500 3 67 32 c93 44 151 100 196
191 l37 76 3 1260 c3 1395 7 1306 -60 1382 -20 22 -362 233 -964 595 -514 308
-950 567 -969 574 -43 19 -130 19 -173 0z m1045 -701 c510 -306 936 -565 946
-576 16 -19 17 -93 17 -1245 0 -933 -3 -1236 -12 -1267 -16 -55 -99 -138 -154
-154 -30 -9 -172 -12 -513 -12 l-472 0 -24 25 -25 24 0 552 c0 397 -3 563 -12
591 -6 22 -31 62 -55 88 -73 82 -61 80 -651 80 -375 0 -526 -3 -556 -12 -55
-16 -138 -99 -154 -154 -9 -30 -12 -189 -12 -593 l0 -552 -25 -24 -24 -25
-472 0 c-341 0 -483 3 -513 12 -55 16 -138 99 -154 154 -18 61 -17 2483 1
2507 6 9 431 269 942 576 683 411 938 560 962 560 25 1 231 -119 960 -555z"/>
</g>
</svg>
