<?xml version="1.0" standalone="no"?>
<!DOCTYPE svg PUBLIC "-//W3C//DTD SVG 20010904//EN"
 "http://www.w3.org/TR/2001/REC-SVG-20010904/DTD/svg10.dtd">
<svg version="1.0" xmlns="http://www.w3.org/2000/svg"
 width="512.000000pt" height="512.000000pt" viewBox="0 0 512.000000 512.000000"
 preserveAspectRatio="xMidYMid meet">

<g transform="translate(0.000000,512.000000) scale(0.100000,-0.100000)"
fill="#000000" stroke="none">
<path d="M2453 5110 c-105 -22 -198 -85 -252 -168 -70 -110 -99 -244 -111
-522 -11 -253 -33 -342 -121 -491 -91 -154 -284 -356 -479 -501 -197 -145
-220 -157 -220 -108 0 11 -10 45 -22 77 -28 78 -122 171 -204 204 -58 24 -65
24 -404 24 -338 0 -346 0 -402 -23 -81 -33 -160 -108 -200 -190 l-33 -67 0
-1530 0 -1530 31 -65 c39 -83 101 -145 184 -184 l65 -31 355 0 355 0 65 31
c132 63 208 178 217 328 l6 83 111 -50 c622 -278 1370 -407 2306 -395 311 4
329 6 420 30 52 14 126 40 165 58 264 119 479 367 555 641 11 40 77 401 147
803 124 715 127 734 127 876 -1 123 -5 160 -26 240 -51 189 -142 343 -282 478
-129 123 -270 205 -441 253 -78 22 -94 23 -652 26 -315 2 -573 5 -573 7 0 1
11 36 25 77 81 236 114 584 80 842 -51 388 -232 658 -507 754 -80 28 -211 39
-285 23z m212 -335 c68 -33 142 -115 186 -210 52 -110 78 -229 85 -390 14
-276 -39 -540 -157 -782 -36 -75 -49 -115 -49 -146 0 -53 30 -102 80 -131 34
-21 52 -21 740 -26 l705 -6 78 -28 c289 -105 484 -395 464 -690 -5 -73 -215
-1315 -253 -1496 -8 -42 -36 -117 -61 -169 -80 -163 -224 -286 -408 -349 l-80
-27 -405 0 c-535 0 -850 28 -1250 110 -387 80 -817 232 -1022 361 l-38 24 2
1046 3 1047 110 66 c447 268 782 607 921 930 63 146 83 249 94 490 12 272 34
366 94 392 32 13 116 5 161 -16z m-1727 -1481 l22 -15 0 -1461 c0 -1346 -1
-1463 -17 -1480 -15 -17 -38 -18 -301 -18 -252 0 -288 2 -304 17 -17 15 -18
74 -18 1479 l0 1463 22 15 c19 14 65 16 298 16 233 0 279 -2 298 -16z"/>
</g>
</svg>
