<?xml version="1.0" standalone="no"?>
<!DOCTYPE svg PUBLIC "-//W3C//DTD SVG 20010904//EN"
 "http://www.w3.org/TR/2001/REC-SVG-20010904/DTD/svg10.dtd">
<svg version="1.0" xmlns="http://www.w3.org/2000/svg"
 width="512.000000pt" height="512.000000pt" viewBox="0 0 512.000000 512.000000"
 preserveAspectRatio="xMidYMid meet">

<g transform="translate(0.000000,512.000000) scale(0.100000,-0.100000)"
fill="#000000" stroke="none">
<path d="M2367 5109 c-427 -30 -850 -175 -1212 -414 -913 -603 -1341 -1709
-1071 -2771 209 -824 831 -1499 1635 -1778 940 -326 1990 -77 2676 635 441
458 685 1027 720 1674 11 217 -19 507 -79 741 -210 826 -828 1497 -1638 1779
-217 76 -422 117 -663 135 -154 11 -208 11 -368 -1z m625 -1227 c92 -41 146
-110 172 -222 41 -172 -3 -420 -123 -704 l-49 -116 403 0 c445 0 460 -2 523
-63 19 -18 42 -49 53 -69 25 -48 25 -139 0 -193 -20 -46 -79 -102 -116 -111
-29 -7 -31 -16 -9 -35 51 -42 72 -175 38 -242 -23 -45 -63 -86 -108 -109 l-38
-19 20 -22 c96 -105 66 -274 -60 -346 -43 -25 -47 -30 -33 -41 9 -8 24 -30 34
-49 59 -117 12 -254 -105 -308 l-55 -25 -677 9 c-673 8 -677 8 -712 30 -20 12
-46 40 -58 61 l-22 40 0 678 0 679 24 42 c42 73 96 130 256 271 223 197 344
316 374 371 24 45 27 63 36 232 9 181 16 224 40 269 11 21 17 22 81 17 37 -3
88 -14 111 -25z m-1175 -1064 c18 -10 45 -35 60 -55 l28 -36 3 -676 c3 -746 4
-732 -59 -785 -50 -42 -92 -47 -357 -44 -238 3 -248 4 -284 26 -20 13 -47 40
-60 60 l-23 37 -3 649 c-2 452 1 665 8 703 13 62 59 116 113 132 18 6 145 9
287 8 222 -2 259 -4 287 -19z"/>
</g>
</svg>
