<?xml version="1.0" standalone="no"?>
<!DOCTYPE svg PUBLIC "-//W3C//DTD SVG 20010904//EN"
 "http://www.w3.org/TR/2001/REC-SVG-20010904/DTD/svg10.dtd">
<svg version="1.0" xmlns="http://www.w3.org/2000/svg"
 width="512.000000pt" height="512.000000pt" viewBox="0 0 512.000000 512.000000"
 preserveAspectRatio="xMidYMid meet">

<g transform="translate(0.000000,512.000000) scale(0.100000,-0.100000)"
fill="#000000" stroke="none">
<path d="M2612 4990 c-90 -24 -204 -83 -237 -122 l-25 -30 0 -377 0 -378 -306
-664 c-168 -365 -312 -669 -320 -675 -12 -9 -14 -187 -14 -1156 l0 -1145 68
-26 c92 -36 200 -65 307 -82 75 -12 261 -15 1127 -15 719 0 1053 3 1090 11
123 26 266 125 325 226 65 111 81 262 42 389 -20 65 -20 69 -4 79 193 111 289
364 216 569 -12 33 -20 60 -19 61 30 14 98 68 132 105 158 169 166 445 18 620
l-29 34 33 47 c216 300 77 699 -286 822 -64 21 -74 22 -772 25 -390 2 -708 5
-708 8 0 3 18 67 40 143 48 165 94 379 111 514 14 120 7 320 -15 401 -71 258
-250 492 -455 594 -67 33 -84 37 -160 39 -60 2 -108 -3 -159 -17z"/>
<path d="M413 2866 c-191 -46 -353 -209 -398 -397 -22 -96 -22 -1852 0 -1948
41 -172 172 -320 340 -384 58 -21 73 -22 479 -25 399 -3 423 -2 485 18 36 11
89 32 116 48 l50 27 3 1338 2 1337 -512 -1 c-377 0 -527 -4 -565 -13z"/>
</g>
</svg>
