<?xml version="1.0" standalone="no"?>
<!DOCTYPE svg PUBLIC "-//W3C//DTD SVG 20010904//EN"
 "http://www.w3.org/TR/2001/REC-SVG-20010904/DTD/svg10.dtd">
<svg version="1.0" xmlns="http://www.w3.org/2000/svg"
 width="512.000000pt" height="512.000000pt" viewBox="0 0 512.000000 512.000000"
 preserveAspectRatio="xMidYMid meet">

<g transform="translate(0.000000,512.000000) scale(0.100000,-0.100000)"
fill="#000000" stroke="none">
<path d="M2035 5101 c-78 -35 -125 -113 -125 -208 l0 -43 -408 0 c-329 0 -419
-3 -465 -15 -187 -49 -338 -202 -382 -386 -21 -92 -21 -458 0 -499 33 -64
-107 -60 1905 -60 2012 0 1872 -4 1905 60 21 41 21 407 0 499 -44 184 -195
337 -382 386 -46 12 -136 15 -465 15 l-408 0 0 43 c0 95 -47 173 -125 208 -37
17 -77 19 -525 19 -448 0 -488 -2 -525 -19z"/>
<path d="M914 3671 c-23 -10 -52 -34 -65 -52 l-24 -34 -3 -1420 c-3 -1567 -5
-1496 60 -1652 60 -147 170 -282 296 -366 92 -61 136 -82 239 -114 l88 -28
1010 -3 c662 -2 1033 1 1077 8 348 54 624 315 692 655 15 72 16 230 14 1500
l-3 1420 -24 34 c-13 18 -42 42 -65 52 -39 18 -102 19 -1646 19 -1544 0 -1607
-1 -1646 -19z m1121 -833 c37 -20 67 -52 91 -98 18 -33 19 -75 19 -895 l0
-860 -22 -40 c-41 -76 -105 -115 -190 -115 -98 1 -182 68 -203 162 -14 66 -13
1646 1 1707 31 136 180 204 304 139z m1271 -13 c45 -34 71 -74 83 -126 14 -61
15 -1641 1 -1707 -21 -94 -105 -161 -203 -162 -85 0 -149 39 -190 115 l-22 40
0 860 c0 820 1 862 19 895 37 69 87 108 156 120 51 9 118 -6 156 -35z"/>
</g>
</svg>
