<?xml version="1.0" standalone="no"?>
<!DOCTYPE svg PUBLIC "-//W3C//DTD SVG 20010904//EN"
 "http://www.w3.org/TR/2001/REC-SVG-20010904/DTD/svg10.dtd">
<svg version="1.0" xmlns="http://www.w3.org/2000/svg"
 width="512.000000pt" height="512.000000pt" viewBox="0 0 512.000000 512.000000"
 preserveAspectRatio="xMidYMid meet">

<g transform="translate(0.000000,512.000000) scale(0.100000,-0.100000)"
fill="#000000" stroke="none">
<path d="M2305 5099 c-230 -20 -526 -90 -744 -176 -753 -296 -1296 -912 -1485
-1685 -161 -658 -61 -1349 276 -1908 93 -154 197 -289 334 -430 l121 -125 6
-225 c7 -247 17 -300 69 -382 39 -62 88 -104 162 -139 54 -26 72 -29 157 -29
114 0 106 -2 400 128 l227 100 78 -19 c662 -159 1401 -63 1962 255 138 78 176
108 201 158 29 61 27 114 -7 179 -22 43 -38 59 -81 81 -74 39 -114 37 -203
-12 -281 -153 -417 -210 -632 -265 -393 -99 -762 -98 -1208 6 -141 33 -176 25
-472 -106 -132 -58 -242 -103 -244 -100 -3 3 -9 105 -13 228 -10 311 -15 325
-204 512 -315 311 -515 708 -579 1145 -154 1047 428 1996 1418 2309 251 80
424 105 716 105 240 0 358 -12 555 -59 884 -210 1507 -920 1594 -1819 44 -446
-59 -916 -279 -1282 -59 -98 -72 -150 -55 -218 28 -111 157 -175 263 -130 74
30 126 105 241 344 105 218 175 454 218 730 24 155 24 546 0 703 -86 562 -311
1019 -688 1396 -535 535 -1297 799 -2104 730z"/>
<path d="M3845 3310 c-11 -4 -195 -141 -410 -304 -254 -193 -401 -298 -422
-302 -17 -3 -47 -1 -66 5 -18 6 -164 110 -323 231 -159 121 -314 232 -344 247
-47 24 -68 27 -145 28 -77 0 -98 -4 -147 -27 -31 -14 -76 -46 -100 -70 -55
-55 -758 -1171 -765 -1214 -11 -69 58 -134 128 -120 23 4 137 86 359 257 472
365 464 359 504 366 20 3 49 0 67 -7 17 -7 160 -114 318 -237 157 -123 311
-235 341 -250 47 -24 68 -27 145 -28 76 0 98 4 145 26 30 14 74 44 97 65 53
49 762 1173 770 1219 13 80 -76 148 -152 115z"/>
</g>
</svg>
