<?xml version="1.0" standalone="no"?>
<!DOCTYPE svg PUBLIC "-//W3C//DTD SVG 20010904//EN"
 "http://www.w3.org/TR/2001/REC-SVG-20010904/DTD/svg10.dtd">
<svg version="1.0" xmlns="http://www.w3.org/2000/svg"
 width="512.000000pt" height="512.000000pt" viewBox="0 0 512.000000 512.000000"
 preserveAspectRatio="xMidYMid meet">

<g transform="translate(0.000000,512.000000) scale(0.100000,-0.100000)"
fill="#000000" stroke="none">
<path d="M681 4784 c-169 -45 -301 -180 -346 -351 -23 -86 -23 -3660 0 -3746
45 -173 178 -307 350 -352 52 -13 277 -15 1875 -15 1980 0 1865 -3 1982 56 71
36 159 123 197 193 65 123 61 -8 61 1991 0 1598 -2 1823 -15 1875 -45 172
-179 305 -352 350 -85 22 -3669 21 -3752 -1z m3725 -330 c15 -11 37 -33 48
-48 21 -27 21 -29 24 -1624 l2 -1597 -442 442 c-480 478 -464 465 -556 448
-32 -6 -76 -45 -320 -288 l-282 -282 -603 602 c-531 531 -606 602 -639 608
-93 17 -76 30 -555 -448 l-443 -442 0 1262 c0 869 3 1270 11 1290 14 37 47 73
84 89 25 11 346 13 1837 11 l1807 -2 27 -21z m-1956 -2969 l845 -845 -1277 2
c-1272 3 -1277 3 -1304 24 -15 11 -37 33 -48 48 -20 26 -21 42 -24 344 l-3
316 478 478 c263 263 480 478 483 478 3 0 385 -380 850 -845z m1548 -268 l473
-473 -23 -33 c-47 -69 -57 -71 -398 -71 l-305 0 -320 320 -320 320 205 205
c113 113 207 205 210 205 3 0 218 -213 478 -473z"/>
<path d="M2901 3665 c-177 -39 -347 -171 -429 -335 -95 -191 -95 -389 0 -580
49 -98 147 -203 240 -258 252 -149 568 -111 772 93 123 122 183 253 193 420
24 420 -362 749 -776 660z m290 -346 c67 -36 98 -68 137 -143 22 -43 26 -64
26 -136 1 -78 -2 -90 -33 -148 -38 -70 -70 -100 -145 -140 -43 -22 -64 -26
-136 -26 -72 0 -93 4 -136 26 -75 40 -107 70 -145 140 -31 58 -34 70 -33 148
0 93 18 143 73 211 30 36 113 87 165 100 63 17 162 2 227 -32z"/>
</g>
</svg>
