<?xml version="1.0" standalone="no"?>
<!DOCTYPE svg PUBLIC "-//W3C//DTD SVG 20010904//EN"
 "http://www.w3.org/TR/2001/REC-SVG-20010904/DTD/svg10.dtd">
<svg version="1.0" xmlns="http://www.w3.org/2000/svg"
 width="512.000000pt" height="512.000000pt" viewBox="0 0 512.000000 512.000000"
 preserveAspectRatio="xMidYMid meet">

<g transform="translate(0.000000,512.000000) scale(0.100000,-0.100000)"
fill="#000000" stroke="none">
<path d="M115 4623 c-35 -9 -87 -54 -101 -89 -12 -28 -14 -337 -14 -1974 0
-2144 -5 -1982 66 -2036 l37 -29 2457 0 2457 0 37 29 c71 54 66 -108 66 2036
0 2144 5 1982 -66 2036 l-37 29 -2441 1 c-1343 1 -2450 0 -2461 -3z m765 -793
l0 -480 -282 2 -283 3 -3 478 -2 477 285 0 285 0 0 -480z m3050 -1270 l0
-1750 -1370 0 -1370 0 0 1750 0 1750 1370 0 1370 0 0 -1750z m878 1273 l-3
-478 -282 -3 -283 -2 0 480 0 480 285 0 285 0 -2 -477z m-3928 -1273 l0 -480
-285 0 -285 0 0 480 0 480 285 0 285 0 0 -480z m3930 0 l0 -480 -285 0 -285 0
0 480 0 480 285 0 285 0 0 -480z m-3930 -1270 l0 -480 -285 0 -285 0 0 473 c0
261 3 477 7 480 3 4 132 7 285 7 l278 0 0 -480z m3928 -2 l2 -478 -285 0 -285
0 0 480 0 480 283 -2 282 -3 3 -477z"/>
<path d="M2105 3286 c-39 -17 -69 -52 -84 -95 -16 -48 -16 -1214 0 -1262 22
-65 82 -109 150 -109 17 0 52 11 78 24 138 70 1020 591 1043 616 49 53 49 147
0 200 -23 25 -905 546 -1043 616 -52 27 -99 30 -144 10z m633 -653 c61 -36
112 -68 112 -73 0 -5 -51 -37 -112 -73 -62 -36 -179 -103 -260 -151 l-148 -85
0 309 0 309 148 -85 c81 -48 198 -115 260 -151z"/>
</g>
</svg>
