<?xml version="1.0" standalone="no"?>
<!DOCTYPE svg PUBLIC "-//W3C//DTD SVG 20010904//EN"
 "http://www.w3.org/TR/2001/REC-SVG-20010904/DTD/svg10.dtd">
<svg version="1.0" xmlns="http://www.w3.org/2000/svg"
 width="512.000000pt" height="512.000000pt" viewBox="0 0 512.000000 512.000000"
 preserveAspectRatio="xMidYMid meet">

<g transform="translate(0.000000,512.000000) scale(0.100000,-0.100000)"
fill="#000000" stroke="none">
<path d="M2443 5106 c-178 -43 -332 -194 -378 -371 -57 -219 48 -460 248 -573
148 -84 346 -84 494 0 296 167 352 566 112 806 -125 125 -309 178 -476 138z"/>
<path d="M1430 4552 c-370 -209 -670 -512 -874 -883 -20 -36 -36 -71 -36 -77
0 -8 19 -12 49 -12 100 0 271 -46 393 -105 21 -10 39 -17 41 -14 2 2 46 60 98
129 118 158 301 342 447 449 61 46 112 85 112 88 0 2 -9 21 -20 42 -53 104
-100 284 -100 382 0 33 -4 49 -12 49 -7 0 -51 -22 -98 -48z"/>
<path d="M3580 4551 c0 -99 -47 -278 -102 -384 -24 -48 -36 -33 104 -125 181
-119 342 -280 461 -462 91 -138 76 -126 124 -102 106 55 285 102 384 102 27 0
49 4 49 9 0 5 -22 48 -50 95 -176 306 -449 602 -720 782 -84 56 -223 134 -240
134 -5 0 -10 -21 -10 -49z"/>
<path d="M2350 3561 c-386 -85 -675 -362 -782 -749 -18 -65 -22 -104 -22 -252
0 -192 11 -253 74 -403 93 -224 313 -444 537 -537 150 -63 211 -74 403 -74
192 0 253 11 403 74 224 93 444 313 537 537 63 150 74 211 74 403 0 192 -11
253 -74 403 -93 224 -313 444 -537 537 -134 56 -214 72 -378 76 -120 3 -167 0
-235 -15z"/>
<path d="M381 3054 c-216 -58 -381 -271 -381 -494 0 -177 113 -366 269 -449
200 -106 441 -71 599 87 104 104 152 219 152 362 0 143 -48 258 -152 362 -125
125 -318 178 -487 132z"/>
<path d="M4485 3056 c-171 -43 -326 -195 -370 -363 -46 -178 5 -363 137 -495
244 -244 657 -175 810 134 78 157 78 299 0 456 -104 211 -349 325 -577 268z"/>
<path d="M955 1643 c-96 -52 -287 -103 -386 -103 -27 0 -49 -4 -49 -9 0 -18
99 -181 172 -283 210 -297 471 -542 754 -709 45 -27 85 -49 88 -49 3 0 6 29 6
64 0 112 45 288 101 398 25 49 37 34 -101 125 -212 138 -368 305 -523 556 -20
31 -22 32 -62 10z"/>
<path d="M4103 1633 c-155 -251 -311 -418 -523 -556 -137 -90 -125 -74 -100
-132 66 -152 100 -285 100 -391 0 -35 2 -64 5 -64 13 0 167 88 250 143 255
170 479 397 633 643 53 86 132 237 132 254 0 5 -22 10 -49 10 -98 0 -278 47
-382 100 -48 25 -45 25 -66 -7z"/>
<path d="M2423 1005 c-169 -46 -325 -211 -362 -383 -48 -229 63 -461 271 -564
157 -78 299 -78 456 0 208 103 319 335 271 564 -37 174 -194 338 -366 383 -71
19 -201 18 -270 0z"/>
</g>
</svg>
