<?xml version="1.0" standalone="no"?>
<!DOCTYPE svg PUBLIC "-//W3C//DTD SVG 20010904//EN"
 "http://www.w3.org/TR/2001/REC-SVG-20010904/DTD/svg10.dtd">
<svg version="1.0" xmlns="http://www.w3.org/2000/svg"
 width="512.000000pt" height="512.000000pt" viewBox="0 0 512.000000 512.000000"
 preserveAspectRatio="xMidYMid meet">

<g transform="translate(0.000000,512.000000) scale(0.100000,-0.100000)"
fill="#000000" stroke="none">
<path d="M140 5107 c-19 -6 -53 -29 -75 -52 -65 -65 -82 -152 -44 -235 29 -66
4721 -4759 4793 -4795 143 -72 307 34 306 196 -1 83 -9 92 -795 879 l-755 755
326 465 c180 256 336 485 347 510 24 53 27 137 8 194 -17 49 -82 121 -136 149
-40 22 -46 22 -652 25 -507 2 -613 5 -613 16 0 8 43 375 96 817 57 483 93 823
90 851 -9 87 -65 169 -139 206 -96 48 -215 35 -292 -31 -25 -22 -205 -280
-475 -681 l-435 -646 -675 674 c-518 519 -685 680 -720 695 -49 22 -106 25
-160 8z"/>
<path d="M1074 2808 c-105 -156 -197 -299 -205 -318 -7 -19 -13 -62 -13 -95 1
-75 31 -141 86 -191 79 -71 57 -69 616 -72 300 -2 502 -7 502 -12 0 -5 -43
-413 -95 -906 -52 -494 -95 -922 -95 -953 0 -168 169 -296 330 -251 96 27 103
35 510 616 211 302 393 562 404 577 l20 28 -929 929 c-512 512 -932 930 -935
930 -3 0 -91 -127 -196 -282z"/>
</g>
</svg>
