<?xml version="1.0" standalone="no"?>
<!DOCTYPE svg PUBLIC "-//W3C//DTD SVG 20010904//EN"
 "http://www.w3.org/TR/2001/REC-SVG-20010904/DTD/svg10.dtd">
<svg version="1.0" xmlns="http://www.w3.org/2000/svg"
 width="512.000000pt" height="512.000000pt" viewBox="0 0 512.000000 512.000000"
 preserveAspectRatio="xMidYMid meet">
<metadata>
Created by potrace 1.16, written by Peter Selinger 2001-2019
</metadata>
<g transform="translate(0.000000,512.000000) scale(0.100000,-0.100000)"
fill="#000000" stroke="none">
<path d="M2473 4620 c-40 -24 -65 -61 -72 -108 -5 -30 -11 -38 -31 -40 -207
-23 -462 -117 -647 -238 -364 -236 -602 -580 -694 -1003 -18 -83 -22 -146 -29
-461 -8 -401 -12 -428 -75 -567 -43 -93 -83 -150 -172 -245 -122 -132 -169
-267 -145 -425 25 -163 123 -298 270 -370 l76 -38 408 -3 408 -3 11 -42 c33
-125 129 -286 222 -374 104 -98 247 -177 379 -208 37 -8 112 -15 178 -15 179
0 295 35 446 136 146 96 265 254 319 419 l28 85 382 0 c352 0 388 2 446 20
226 69 369 304 330 541 -17 104 -60 186 -144 277 -89 95 -129 152 -173 247
-61 133 -65 164 -74 565 -7 313 -11 378 -29 458 -70 315 -211 572 -436 797
-127 127 -242 211 -393 288 -162 83 -299 128 -457 151 l-80 12 -6 36 c-13 81
-72 128 -159 128 -37 0 -66 -6 -87 -20z m208 -474 c309 -22 637 -204 844 -471
116 -150 182 -285 232 -474 24 -91 26 -115 34 -466 5 -274 11 -387 23 -436 49
-213 140 -384 290 -548 50 -55 77 -93 81 -115 15 -78 -44 -169 -121 -187 -51
-11 -2957 -11 -3008 0 -77 18 -136 109 -121 187 4 22 31 60 81 115 148 161
231 315 285 529 19 75 22 126 29 455 8 385 13 424 61 567 135 404 482 720 897
819 85 21 242 38 292 33 14 -2 59 -5 101 -8z m319 -3031 c0 -3 -12 -29 -26
-57 -40 -79 -129 -162 -221 -206 -76 -36 -81 -37 -193 -37 -112 0 -117 1 -193
37 -92 44 -181 127 -221 206 -14 28 -26 54 -26 57 0 3 198 5 440 5 242 0 440
-2 440 -5z"/>
</g>
</svg>
