<?xml version="1.0" standalone="no"?>
<!DOCTYPE svg PUBLIC "-//W3C//DTD SVG 20010904//EN"
 "http://www.w3.org/TR/2001/REC-SVG-20010904/DTD/svg10.dtd">
<svg version="1.0" xmlns="http://www.w3.org/2000/svg"
 width="512.000000pt" height="512.000000pt" viewBox="0 0 512.000000 512.000000"
 preserveAspectRatio="xMidYMid meet">

<g transform="translate(0.000000,512.000000) scale(0.100000,-0.100000)"
fill="#000000" stroke="none">
<path d="M2335 4944 c-490 -66 -919 -325 -1212 -731 -76 -106 -191 -333 -233
-460 -82 -249 -90 -342 -90 -1093 l0 -636 -97 -374 c-97 -372 -98 -376 -97
-490 0 -100 4 -124 27 -183 34 -86 71 -140 144 -208 64 -59 156 -108 243 -130
46 -12 308 -14 1550 -14 1423 0 1498 1 1555 18 197 61 336 203 380 388 29 126
23 167 -85 594 l-100 393 0 641 c0 692 -5 772 -55 974 -126 499 -477 926 -948
1153 -309 148 -650 203 -982 158z m508 -333 c500 -106 898 -451 1067 -926 75
-212 73 -189 79 -995 l6 -725 98 -385 c106 -415 109 -437 69 -517 -23 -44 -53
-73 -102 -99 -34 -18 -89 -19 -1505 -19 l-1470 0 -48 28 c-58 34 -94 86 -108
158 -11 52 -8 68 90 456 l101 403 0 648 c0 389 4 681 10 732 81 653 592 1168
1251 1260 104 14 351 4 462 -19z"/>
<path d="M1785 456 c-110 -66 -105 -220 9 -275 42 -21 54 -21 766 -21 712 0
724 0 766 21 116 56 117 221 3 279 -37 19 -62 20 -771 20 l-733 0 -40 -24z"/>
</g>
</svg>
