<?xml version="1.0" standalone="no"?>
<!DOCTYPE svg PUBLIC "-//W3C//DTD SVG 20010904//EN"
 "http://www.w3.org/TR/2001/REC-SVG-20010904/DTD/svg10.dtd">
<svg version="1.0" xmlns="http://www.w3.org/2000/svg"
 width="512.000000pt" height="512.000000pt" viewBox="0 0 512.000000 512.000000"
 preserveAspectRatio="xMidYMid meet">

<g transform="translate(0.000000,512.000000) scale(0.100000,-0.100000)"
fill="#000000" stroke="none">
<path d="M1610 5113 c-143 -28 -276 -148 -320 -291 -19 -60 -20 -94 -20 -582
0 -488 1 -522 20 -581 38 -123 131 -223 252 -272 49 -20 75 -22 383 -27 309
-5 332 -6 365 -26 32 -18 66 -62 129 -166 l23 -38 -664 0 c-723 0 -737 -1
-842 -58 -65 -35 -153 -123 -188 -188 -47 -87 -58 -158 -58 -381 l0 -203 28
-31 c38 -43 101 -45 140 -5 l27 26 5 223 c5 204 7 225 27 263 28 53 74 99 127
127 l41 22 1475 0 1475 0 41 -22 c53 -28 99 -74 127 -127 22 -41 22 -42 25
-686 l3 -645 -358 357 c-393 392 -397 395 -541 420 -92 15 -179 2 -271 -43
-59 -29 -116 -82 -566 -530 -378 -377 -507 -499 -524 -499 -17 0 -55 29 -123
96 -149 144 -273 193 -429 166 -127 -22 -166 -48 -356 -236 l-173 -170 0 241
0 241 -25 30 c-30 35 -69 45 -111 27 -67 -28 -64 -4 -64 -590 0 -578 3 -607
58 -709 36 -66 114 -145 182 -184 114 -66 42 -63 1665 -60 l1470 3 58 23 c129
52 246 176 284 300 17 53 18 137 18 1237 0 1100 -1 1184 -18 1237 -38 124
-155 248 -284 300 l-58 23 -672 3 -673 3 27 42 c123 198 95 187 479 187 247 0
310 3 355 16 146 43 237 130 290 274 l24 65 0 530 0 530 -23 57 c-50 124 -137
214 -249 259 l-58 24 -965 1 c-531 1 -976 -1 -990 -3z m1961 -221 c66 -34 105
-88 119 -161 6 -31 10 -240 10 -491 0 -251 -4 -460 -10 -491 -14 -75 -53 -128
-119 -161 l-55 -28 -302 0 c-273 0 -308 -2 -365 -20 -88 -27 -153 -80 -215
-174 l-53 -78 -44 68 c-54 84 -111 138 -186 173 l-56 26 -335 5 c-287 4 -339
7 -365 22 -45 24 -85 68 -106 113 -17 37 -19 76 -19 545 0 565 -2 548 73 618
66 64 21 61 1043 62 l932 0 53 -28z m-206 -2886 c39 -19 140 -114 458 -433
l408 -409 -3 -384 c-3 -375 -4 -386 -25 -426 -28 -53 -74 -99 -127 -127 l-41
-22 -1475 0 -1475 0 -41 22 c-53 28 -99 74 -127 127 -19 36 -22 59 -25 205
l-4 164 219 219 c120 121 237 230 259 244 53 31 129 41 191 24 44 -12 76 -41
353 -315 168 -166 316 -308 329 -315 76 -39 169 56 130 133 -6 12 -66 78 -133
147 l-121 125 515 511 c391 387 523 513 550 521 62 19 131 15 185 -11z"/>
<path d="M1974 4626 c-111 -52 -168 -142 -169 -266 0 -121 21 -154 232 -353
97 -92 187 -170 200 -173 13 -4 35 -3 49 0 36 9 361 320 399 381 28 45 30 55
30 144 0 87 -3 101 -27 143 -36 61 -99 113 -160 134 -65 21 -168 16 -224 -12
l-41 -20 -49 23 c-69 32 -170 32 -240 -1z m193 -211 c73 -73 115 -75 179 -10
37 39 49 45 84 45 57 0 90 -34 90 -92 0 -42 -2 -46 -127 -165 -116 -111 -129
-120 -146 -108 -26 18 -216 205 -233 230 -21 30 -17 70 12 104 21 25 33 31 66
31 32 0 47 -7 75 -35z"/>
<path d="M3018 4621 c-27 -24 -33 -36 -33 -71 0 -35 6 -47 33 -71 20 -18 43
-29 62 -29 l30 0 0 -260 c0 -327 7 -350 108 -350 33 0 45 6 66 31 l26 31 0
339 c0 214 -4 347 -10 360 -19 35 -63 49 -159 49 -86 0 -92 -2 -123 -29z"/>
<path d="M1771 2555 c-148 -42 -263 -170 -291 -325 -48 -262 197 -508 460
-462 301 53 437 394 256 640 -40 56 -119 114 -186 137 -65 24 -174 28 -239 10z
m177 -201 c108 -45 160 -167 113 -269 -31 -70 -113 -125 -185 -125 -82 0 -174
73 -195 155 -40 158 120 301 267 239z"/>
<path d="M723 1976 c-23 -20 -28 -32 -28 -71 0 -39 5 -51 28 -71 64 -55 167
-11 167 71 0 82 -103 126 -167 71z"/>
</g>
</svg>
