<?xml version="1.0" standalone="no"?>
<!DOCTYPE svg PUBLIC "-//W3C//DTD SVG 20010904//EN"
 "http://www.w3.org/TR/2001/REC-SVG-20010904/DTD/svg10.dtd">
<svg version="1.0" xmlns="http://www.w3.org/2000/svg"
 width="512.000000pt" height="512.000000pt" viewBox="0 0 512.000000 512.000000"
 preserveAspectRatio="xMidYMid meet">

<g transform="translate(0.000000,512.000000) scale(0.100000,-0.100000)"
fill="#000000" stroke="none">
<path d="M1155 4419 c-224 -29 -426 -129 -591 -293 -125 -125 -203 -256 -261
-443 l-28 -88 -3 -1212 c-2 -1162 -2 -1216 17 -1306 77 -377 351 -666 741
-780 l75 -22 1423 -3 c1362 -2 1426 -2 1515 17 395 80 707 391 788 786 17 83
19 147 19 788 0 764 3 728 -60 780 -68 58 -183 38 -232 -41 l-23 -37 -5 -715
-5 -715 -23 -65 c-69 -190 -190 -329 -357 -410 -152 -74 -54 -70 -1585 -70
-1531 0 -1433 -4 -1585 70 -137 66 -249 178 -315 315 -73 150 -70 78 -70 1371
0 1122 1 1163 20 1238 69 272 297 475 577 516 40 6 422 10 933 10 823 0 867 1
900 19 53 28 80 74 80 136 0 66 -29 112 -90 143 l-44 22 -871 -1 c-478 -1
-901 -6 -940 -10z"/>
<path d="M3945 4420 c-522 -80 -831 -622 -629 -1102 92 -219 274 -383 509
-458 106 -34 292 -39 407 -11 160 38 288 111 399 228 103 108 165 223 201 372
27 114 22 300 -12 406 -89 279 -309 487 -583 550 -84 19 -219 26 -292 15z
m263 -341 c114 -39 227 -138 276 -243 88 -185 51 -403 -93 -547 -116 -115
-290 -165 -450 -128 -128 29 -261 137 -319 260 -112 236 -14 518 220 633 119
58 247 67 366 25z"/>
<path d="M1215 3346 c-91 -40 -123 -165 -63 -241 25 -32 859 -590 949 -635
237 -120 523 -142 771 -60 110 37 180 72 295 149 72 48 96 70 112 104 27 55
26 82 -1 137 -30 57 -65 82 -126 88 -56 5 -70 -1 -199 -85 -48 -31 -125 -70
-172 -87 -79 -28 -97 -30 -216 -31 -139 0 -201 12 -300 61 -27 14 -247 156
-487 316 -398 265 -442 291 -485 295 -28 2 -61 -3 -78 -11z"/>
</g>
</svg>
