<?xml version="1.0" standalone="no"?>
<!DOCTYPE svg PUBLIC "-//W3C//DTD SVG 20010904//EN"
 "http://www.w3.org/TR/2001/REC-SVG-20010904/DTD/svg10.dtd">
<svg version="1.0" xmlns="http://www.w3.org/2000/svg"
 width="512.000000pt" height="512.000000pt" viewBox="0 0 512.000000 512.000000"
 preserveAspectRatio="xMidYMid meet">

<g transform="translate(0.000000,512.000000) scale(0.100000,-0.100000)"
fill="#000000" stroke="none">
<path d="M2268 4734 c-631 -98 -1069 -700 -973 -1337 39 -260 161 -488 362
-677 414 -390 1047 -423 1504 -78 319 240 501 654 460 1042 -33 299 -149 537
-361 740 -265 253 -628 367 -992 310z m312 -314 c193 -31 372 -127 502 -270
355 -388 276 -1000 -165 -1288 -148 -96 -287 -136 -472 -135 -244 2 -452 94
-616 271 -258 279 -302 689 -109 1013 54 91 173 216 262 275 173 115 398 165
598 134z"/>
<path d="M3833 2432 c-69 -25 -123 -62 -166 -114 -50 -61 -532 -1097 -546
-1173 -6 -32 -8 -76 -5 -99 3 -22 49 -187 102 -365 99 -336 112 -365 173 -396
60 -31 94 -22 417 117 168 73 327 146 351 163 86 59 83 54 461 870 148 318
154 333 158 406 8 132 -42 245 -140 319 -26 19 -167 91 -315 160 l-268 124
-85 3 c-64 3 -98 -1 -137 -15z m375 -412 c130 -61 240 -116 244 -123 4 -6 8
-20 8 -30 0 -29 -470 -1031 -489 -1042 -40 -24 -403 -176 -408 -171 -3 3 -34
101 -69 218 l-63 213 216 465 c284 611 268 580 299 580 14 0 132 -50 262 -110z"/>
<path d="M2170 2209 c-547 -37 -1091 -198 -1425 -422 -196 -132 -327 -274
-410 -448 -58 -122 -67 -183 -63 -460 l3 -244 30 -58 c37 -74 117 -148 193
-179 l57 -23 1185 0 1185 0 38 24 c51 31 81 91 74 149 -5 50 -29 87 -77 120
l-33 22 -1152 0 c-924 0 -1155 3 -1169 13 -16 12 -17 32 -14 228 l3 215 39 78
c115 234 491 459 961 575 397 98 909 126 1325 71 91 -12 131 -3 177 42 59 57
64 146 12 212 -31 39 -64 53 -164 65 -232 29 -521 37 -775 20z"/>
</g>
</svg>
