<?xml version="1.0" standalone="no"?>
<!DOCTYPE svg PUBLIC "-//W3C//DTD SVG 20010904//EN"
 "http://www.w3.org/TR/2001/REC-SVG-20010904/DTD/svg10.dtd">
<svg version="1.0" xmlns="http://www.w3.org/2000/svg"
 width="512.000000pt" height="512.000000pt" viewBox="0 0 512.000000 512.000000"
 preserveAspectRatio="xMidYMid meet">

<g transform="translate(0.000000,512.000000) scale(0.100000,-0.100000)"
fill="#000000" stroke="none">
<path d="M1635 4853 c-453 -43 -757 -163 -981 -387 -198 -198 -314 -459 -371
-832 -16 -108 -18 -204 -18 -1074 0 -870 2 -966 18 -1074 57 -373 173 -634
371 -832 158 -158 343 -258 601 -324 246 -63 242 -63 1238 -67 991 -4 1062 -1
1306 53 558 124 887 458 1009 1024 50 232 53 309 49 1286 -4 997 -4 993 -67
1239 -132 512 -441 812 -961 935 -229 54 -225 54 -1224 55 -511 1 -948 0 -970
-2z m1505 -693 l0 -380 -565 0 -565 0 0 380 0 380 565 0 565 0 0 -380z m510
355 c289 -47 485 -137 631 -292 99 -105 164 -225 213 -390 l15 -53 -515 0
-514 0 0 375 0 375 38 0 c20 0 80 -7 132 -15z m-1990 -370 l0 -365 -500 0
c-408 0 -500 2 -500 13 0 17 41 137 69 201 75 172 237 329 419 406 128 54 355
107 470 109 l42 1 0 -365z m2905 -920 c10 -278 -1 -1528 -14 -1635 -28 -222
-70 -371 -147 -522 -39 -76 -65 -110 -144 -189 -80 -80 -110 -103 -195 -146
-119 -61 -226 -95 -395 -125 -124 -23 -131 -23 -1085 -23 -879 0 -969 2 -1067
18 -554 93 -800 339 -895 892 -15 88 -17 209 -20 1018 l-4 917 1979 0 1980 0
7 -205z"/>
<path d="M2233 2786 c-149 -48 -260 -184 -298 -362 -21 -97 -21 -699 -1 -796
33 -152 111 -252 250 -323 l80 -40 125 1 c185 1 230 18 551 200 238 135 272
157 345 229 108 105 137 165 143 290 3 74 0 102 -18 154 -28 85 -78 159 -151
225 -73 65 -591 365 -700 403 -90 32 -256 42 -326 19z m261 -305 c43 -12 479
-266 523 -305 52 -46 73 -83 73 -131 0 -89 -37 -119 -379 -314 -274 -155 -287
-161 -341 -161 -124 0 -132 29 -128 477 3 314 4 341 23 378 28 57 73 78 148
69 32 -3 69 -9 81 -13z"/>
</g>
</svg>
