<?xml version="1.0" standalone="no"?>
<!DOCTYPE svg PUBLIC "-//W3C//DTD SVG 20010904//EN"
 "http://www.w3.org/TR/2001/REC-SVG-20010904/DTD/svg10.dtd">
<svg version="1.0" xmlns="http://www.w3.org/2000/svg"
 width="512.000000pt" height="512.000000pt" viewBox="0 0 512.000000 512.000000"
 preserveAspectRatio="xMidYMid meet">
<metadata>
Created by potrace 1.16, written by Peter Selinger 2001-2019
</metadata>
<g transform="translate(0.000000,512.000000) scale(0.100000,-0.100000)"
fill="#000000" stroke="none">
<path d="M1770 5109 c-201 -26 -461 -104 -634 -191 -623 -313 -1042 -899
-1126 -1578 -15 -125 -12 -405 5 -529 64 -442 265 -841 582 -1157 612 -609
1534 -764 2309 -388 141 68 287 161 400 254 l71 59 759 -761 c417 -418 777
-773 798 -789 120 -89 246 37 157 157 -16 21 -371 381 -789 798 l-761 759 59
71 c439 532 575 1287 349 1932 -108 309 -260 553 -483 777 -316 317 -715 518
-1157 582 -115 16 -425 19 -539 4z m550 -233 c380 -66 716 -241 987 -514 341
-343 523 -784 523 -1267 0 -492 -181 -927 -529 -1276 -284 -283 -615 -451
-1017 -513 -133 -21 -385 -21 -518 0 -530 82 -977 375 -1269 831 -126 196
-220 448 -258 693 -18 108 -18 418 0 525 87 544 390 996 863 1288 185 115 446
207 663 236 44 6 94 13 110 15 60 9 362 -4 445 -18z"/>
</g>
</svg>
