<?xml version="1.0" standalone="no"?>
<!DOCTYPE svg PUBLIC "-//W3C//DTD SVG 20010904//EN"
 "http://www.w3.org/TR/2001/REC-SVG-20010904/DTD/svg10.dtd">
<svg version="1.0" xmlns="http://www.w3.org/2000/svg"
 width="512.000000pt" height="512.000000pt" viewBox="0 0 512.000000 512.000000"
 preserveAspectRatio="xMidYMid meet">
<metadata>
Created by potrace 1.16, written by Peter Selinger 2001-2019
</metadata>
<g transform="translate(0.000000,512.000000) scale(0.100000,-0.100000)"
fill="#000000" stroke="none">
<path d="M1884 4995 c-587 -86 -1107 -416 -1435 -910 -168 -252 -280 -550
-324 -857 -19 -134 -19 -432 0 -566 66 -462 279 -881 611 -1202 320 -309 715
-502 1156 -565 137 -19 424 -19 564 0 352 49 687 187 963 397 l65 49 601 -600
c330 -329 615 -607 634 -616 49 -25 155 -18 199 13 62 45 86 88 90 162 3 49 0
76 -13 101 -9 19 -287 304 -616 634 l-600 601 49 65 c209 275 348 613 397 963
19 140 19 427 0 564 -51 356 -188 685 -406 974 -80 107 -280 307 -387 387
-289 218 -618 355 -974 406 -128 18 -448 18 -574 0z m618 -434 c585 -128 1049
-540 1237 -1100 63 -189 76 -273 76 -516 0 -245 -13 -330 -79 -522 -152 -446
-488 -810 -916 -992 -490 -207 -1056 -167 -1498 107 -398 247 -664 624 -764
1082 -20 91 -23 133 -23 325 0 192 3 234 23 325 71 324 209 584 436 819 254
262 540 413 911 482 141 26 456 21 597 -10z"/>
</g>
</svg>
