<?xml version="1.0" standalone="no"?>
<!DOCTYPE svg PUBLIC "-//W3C//DTD SVG 20010904//EN"
 "http://www.w3.org/TR/2001/REC-SVG-20010904/DTD/svg10.dtd">
<svg version="1.0" xmlns="http://www.w3.org/2000/svg"
 width="512.000000pt" height="512.000000pt" viewBox="0 0 512.000000 512.000000"
 preserveAspectRatio="xMidYMid meet">

<g transform="translate(0.000000,512.000000) scale(0.100000,-0.100000)"
fill="#000000" stroke="none">
<path d="M2405 5079 c-904 -50 -1724 -601 -2120 -1424 -70 -146 -125 -296
-125 -340 0 -85 63 -167 147 -191 48 -14 58 -14 106 0 75 22 110 63 157 184
287 740 921 1246 1700 1357 123 17 417 20 540 4 461 -57 889 -260 1224 -580
94 -89 271 -297 261 -307 -2 -2 -71 13 -152 33 -131 33 -153 36 -189 26 -102
-28 -158 -104 -152 -207 4 -66 30 -113 86 -152 17 -12 184 -61 421 -122 325
-85 403 -102 447 -98 69 6 125 42 152 100 11 24 64 212 117 418 107 413 109
430 57 504 -56 80 -161 108 -250 65 -69 -34 -95 -80 -132 -231 -18 -73 -35
-137 -37 -141 -3 -4 -35 33 -71 82 -319 427 -742 733 -1237 896 -309 102 -621
143 -950 124z"/>
<path d="M4701 1995 c-70 -22 -105 -64 -152 -184 -56 -142 -145 -316 -218
-426 -345 -520 -909 -865 -1529 -936 -137 -15 -468 -7 -587 15 -445 82 -818
269 -1132 570 -103 98 -270 299 -254 304 5 2 72 -13 148 -33 126 -34 142 -36
187 -26 96 22 156 95 156 190 0 27 -5 62 -11 78 -14 39 -77 101 -113 113 -17
5 -197 53 -401 105 -305 80 -380 96 -427 93 -72 -5 -128 -40 -156 -100 -11
-24 -64 -212 -117 -418 -107 -414 -109 -431 -59 -503 58 -81 163 -109 252 -66
69 34 95 80 132 231 18 73 35 137 37 141 3 4 35 -33 71 -82 418 -560 1024
-915 1717 -1006 141 -19 443 -21 590 -5 221 24 479 90 687 175 560 230 1022
659 1292 1201 79 159 137 306 144 360 10 91 -52 183 -141 209 -60 18 -59 18
-116 0z"/>
</g>
</svg>
