<?xml version="1.0" standalone="no"?>
<!DOCTYPE svg PUBLIC "-//W3C//DTD SVG 20010904//EN"
 "http://www.w3.org/TR/2001/REC-SVG-20010904/DTD/svg10.dtd">
<svg version="1.0" xmlns="http://www.w3.org/2000/svg"
 width="512.000000pt" height="512.000000pt" viewBox="0 0 512.000000 512.000000"
 preserveAspectRatio="xMidYMid meet">

<g transform="translate(0.000000,512.000000) scale(0.100000,-0.100000)"
fill="#000000" stroke="none">
<path d="M1490 4684 c-14 -2 -59 -9 -100 -15 -267 -38 -473 -133 -635 -294
-142 -140 -226 -296 -279 -514 -46 -191 -47 -226 -44 -1807 l3 -1490 25 -37
c14 -21 43 -50 64 -65 l39 -27 1546 0 c1247 0 1560 3 1621 13 297 53 481 141
645 307 129 130 207 271 259 468 52 196 51 167 51 1337 0 1156 1 1135 -46
1323 -95 381 -352 645 -726 748 -197 54 -145 52 -1313 54 -597 2 -1096 1
-1110 -1z m2220 -1457 c77 -51 98 -154 46 -221 -58 -77 46 -71 -1161 -74 -594
-2 -1099 0 -1123 3 -61 9 -127 73 -137 133 -9 54 25 127 74 159 l34 23 1117 0
1117 0 33 -23z m-648 -1059 c15 -10 39 -34 54 -54 52 -67 31 -170 -46 -221
l-33 -23 -794 0 c-681 0 -798 2 -823 15 -62 32 -99 115 -81 183 12 44 65 99
107 112 16 5 380 8 809 7 722 -2 783 -3 807 -19z"/>
</g>
</svg>
