<?xml version="1.0" standalone="no"?>
<!DOCTYPE svg PUBLIC "-//W3C//DTD SVG 20010904//EN"
 "http://www.w3.org/TR/2001/REC-SVG-20010904/DTD/svg10.dtd">
<svg version="1.0" xmlns="http://www.w3.org/2000/svg"
 width="512.000000pt" height="512.000000pt" viewBox="0 0 512.000000 512.000000"
 preserveAspectRatio="xMidYMid meet">

<g transform="translate(0.000000,512.000000) scale(0.100000,-0.100000)"
fill="#000000" stroke="none">
<path d="M651 5105 c-150 -33 -254 -83 -363 -175 -117 -97 -209 -237 -255
-385 l-28 -90 0 -1285 0 -1285 28 -90 c80 -259 283 -462 542 -542 l90 -28
1895 0 1895 0 90 28 c331 103 565 404 569 733 1 93 -1 103 -26 141 -41 62 -90
88 -168 88 -121 0 -183 -63 -200 -204 -24 -191 -114 -312 -274 -368 -48 -17
-146 -18 -1886 -18 -1740 0 -1838 1 -1886 18 -113 39 -201 123 -246 234 l-23
58 0 1235 0 1235 23 58 c45 111 133 195 246 234 48 17 146 18 1886 18 1740 0
1838 -1 1886 -18 113 -39 201 -123 246 -234 l23 -58 5 -721 5 -720 27 -41 c41
-62 90 -88 168 -88 78 0 127 26 168 88 l27 41 0 745 0 746 -28 90 c-80 259
-283 462 -542 542 l-90 28 -1870 2 c-1567 1 -1880 -1 -1934 -12z"/>
<path d="M2147 4041 c-109 -36 -188 -105 -240 -211 l-32 -65 0 -595 0 -595 32
-65 c41 -83 111 -153 193 -193 58 -28 75 -31 155 -32 50 0 106 6 126 13 20 7
245 133 500 281 314 182 479 283 512 314 29 28 60 73 80 114 29 62 32 77 32
163 0 86 -3 101 -32 163 -20 41 -51 86 -80 114 -32 30 -191 129 -478 295 -236
137 -458 263 -493 280 -83 40 -190 47 -275 19z m541 -631 c221 -128 402 -236
402 -240 0 -5 -708 -421 -812 -477 -5 -2 -8 212 -8 477 0 265 3 479 8 477 4
-2 188 -109 410 -237z"/>
<path d="M1256 790 c-67 -17 -155 -71 -203 -124 l-46 -51 -436 -5 -436 -5 -38
-24 c-21 -13 -50 -42 -65 -64 -23 -34 -27 -52 -27 -107 0 -55 4 -73 27 -107
15 -22 44 -51 65 -64 l38 -24 432 -3 432 -3 21 -33 c32 -52 96 -105 169 -140
59 -28 75 -31 156 -30 69 0 104 6 148 23 156 61 252 202 252 371 0 218 -160
384 -380 396 -38 2 -87 -1 -109 -6z"/>
<path d="M2282 599 c-47 -14 -109 -79 -123 -131 -23 -89 12 -182 88 -229 l38
-24 1350 0 1350 0 38 24 c21 13 50 42 65 64 23 34 27 52 27 107 0 55 -4 73
-27 107 -15 22 -44 51 -65 64 l-38 24 -1335 2 c-824 1 -1348 -2 -1368 -8z"/>
</g>
</svg>
