<?xml version="1.0" standalone="no"?>
<!DOCTYPE svg PUBLIC "-//W3C//DTD SVG 20010904//EN"
 "http://www.w3.org/TR/2001/REC-SVG-20010904/DTD/svg10.dtd">
<svg version="1.0" xmlns="http://www.w3.org/2000/svg"
 width="512.000000pt" height="512.000000pt" viewBox="0 0 512.000000 512.000000"
 preserveAspectRatio="xMidYMid meet">

<g transform="translate(0.000000,512.000000) scale(0.100000,-0.100000)"
fill="#000000" stroke="none">
<path d="M2305 4758 c-248 -28 -525 -110 -754 -224 -147 -73 -320 -181 -398
-249 -73 -62 -82 -152 -23 -219 69 -78 143 -75 262 11 351 254 746 383 1168
383 397 0 761 -112 1102 -340 73 -48 144 -89 158 -90 70 -6 91 0 132 39 39 36
42 42 46 103 4 62 3 67 -29 103 -50 56 -253 187 -414 266 -231 113 -500 191
-757 218 -114 13 -379 12 -493 -1z"/>
<path d="M2415 3964 c-405 -58 -679 -193 -935 -460 -193 -202 -318 -440 -382
-731 -32 -142 -32 -444 0 -586 32 -146 76 -268 143 -397 78 -150 164 -264 292
-386 208 -199 441 -321 734 -386 142 -32 444 -32 586 0 306 68 571 213 773
423 209 218 331 449 395 749 19 87 23 136 23 290 0 154 -4 203 -23 290 -66
311 -207 568 -427 781 -207 199 -462 333 -743 390 -92 19 -366 33 -436 23z
m366 -328 c471 -91 831 -450 930 -928 30 -145 23 -377 -15 -521 -30 -117 -105
-278 -175 -380 -65 -94 -194 -223 -288 -288 -100 -69 -258 -143 -378 -175 -93
-26 -113 -28 -295 -28 -180 0 -203 2 -293 27 -118 31 -279 106 -380 176 -173
120 -340 330 -416 524 -102 262 -110 569 -20 823 62 177 151 318 284 449 174
173 402 291 625 324 41 6 86 13 100 15 45 8 244 -3 321 -18z"/>
<path d="M397 2896 c-45 -16 -74 -40 -93 -77 -41 -80 -43 -501 -4 -729 119
-681 540 -1278 1135 -1607 108 -60 247 -123 293 -134 107 -24 214 88 183 192
-19 64 -47 86 -204 163 -312 153 -542 342 -736 606 -280 379 -409 825 -379
1308 5 75 6 151 3 168 -15 85 -115 140 -198 110z"/>
<path d="M4593 2880 c-68 -41 -68 -42 -68 -365 -1 -298 -5 -337 -50 -515 -47
-186 -147 -420 -250 -580 -203 -318 -481 -560 -835 -729 -69 -32 -135 -70
-147 -82 -93 -101 -21 -261 116 -261 115 0 451 187 682 380 552 462 861 1203
800 1917 -14 159 -32 205 -91 237 -46 24 -116 23 -157 -2z"/>
</g>
</svg>
